<svg xmlns="http://www.w3.org/2000/svg" viewBox="0 0 320.69 164.56"><defs><style>.cls-1,.cls-7{fill:#407bff;}.cls-2{opacity:0.5;}.cls-3{fill:#263238;}.cls-4,.cls-6{fill:#fff;}.cls-5,.cls-7{opacity:0.2;}.cls-6{opacity:0.4;}</style></defs><g id="Capa_2" data-name="Capa 2"><g id="Car"><path class="cls-1" d="M2.47,133.61H176.41V79.39H23.08L8.77,91a17.08,17.08,0,0,0-6.3,13.24Z"/><path class="cls-2" d="M2.47,133.61H176.41V79.39H23.08L8.77,91a17.08,17.08,0,0,0-6.3,13.24Z"/><path class="cls-3" d="M177.41,128.72c0-19.79-9-35.83-20-35.83h21.26c11.07,0,20,16,20,35.83s-9,35.84-20,35.84H157.37C168.44,164.56,177.41,148.51,177.41,128.72Z"/><ellipse class="cls-3" cx="157.37" cy="128.72" rx="20.04" ry="35.83"/><ellipse class="cls-4" cx="155.76" cy="128.72" rx="14.21" ry="27.94"/><path class="cls-3" d="M292.93,128.72c0-19.79-9-35.83-20-35.83h21.26c11.07,0,20,16,20,35.83s-9,35.84-20,35.84H272.89C284,164.56,292.93,148.51,292.93,128.72Z"/><ellipse class="cls-3" cx="272.89" cy="128.72" rx="20.04" ry="35.83"/><path class="cls-3" d="M40.08,128.72c0-19.79-9-35.83-20-35.83H41.3c11.07,0,20,16,20,35.83s-9,35.84-20,35.84H20C31.11,164.56,40.08,148.51,40.08,128.72Z"/><ellipse class="cls-3" cx="20.04" cy="128.72" rx="20.04" ry="35.83"/><ellipse class="cls-4" cx="18.43" cy="128.72" rx="14.21" ry="27.94"/><path class="cls-1" d="M201.1,138.72h25.7l1.44-1.43a7.91,7.91,0,0,1,5.59-2.32h64.25a7.91,7.91,0,0,1,5.59,2.32l.87.87h2.35a13.8,13.8,0,0,0,13.8-13.8V103.17H174.86l11.62,25.22A15.51,15.51,0,0,0,201.1,138.72Z"/><path class="cls-5" d="M201.1,138.72h25.7l1.44-1.43a7.91,7.91,0,0,1,5.59-2.32h64.25a7.91,7.91,0,0,1,5.59,2.32l.87.87h2.35a13.8,13.8,0,0,0,13.8-13.8V103.17H174.86l11.62,25.22A15.51,15.51,0,0,0,201.1,138.72Z"/><path class="cls-3" d="M49.3,13a.48.48,0,0,0,.26-.07.5.5,0,0,0,.18-.68l-7-12a.51.51,0,0,0-.69-.18.49.49,0,0,0-.18.68l7,12A.5.5,0,0,0,49.3,13Z"/><path class="cls-1" d="M12.38,72.69V59.06c0-7.17,10.42-41,24.76-47.34s49-9.16,70.83-8,51,46.84,51,46.84l-3.17,39.27c-4.43,0-18.57-1.33-20.65,37.53a10.68,10.68,0,0,1-10.65,10.14H48a10.66,10.66,0,0,1-10.56-9.16c-2-13.85-7.22-38.51-19.8-38.51-8.84,0-15.17,7.56-15.17,16.23h0A58.77,58.77,0,0,1,9.22,78.72Z"/><path class="cls-1" d="M188,3.72c39.78,0,84.83,46.84,84.83,46.84H158.93S129.8,4.89,108,3.72Z"/><path class="cls-6" d="M185.53,3.72C219,3.72,254.17,37,264.42,47.43a1.84,1.84,0,0,1-1.31,3.13H171.25a23.53,23.53,0,0,1-19-9.58C142.41,27.52,123.37,4.55,108,3.72Z"/><path class="cls-1" d="M158.93,50.56,201,83.75l113.19-.36s6.5,9.44,6.5,19.78H174.86c-2.39-6.34-10.76-13.34-19.1-13.34C155.76,78.06,158.93,50.56,158.93,50.56Z"/><path class="cls-5" d="M186.46,74a.5.5,0,0,0,.08-1,55.33,55.33,0,0,1-27.3-12.7,8.06,8.06,0,0,1-1.45-10.74.51.51,0,0,0-.13-.69.5.5,0,0,0-.7.13A9.07,9.07,0,0,0,158.59,61,56.39,56.39,0,0,0,186.38,74Z"/><path class="cls-1" d="M314.19,83.39S294.3,60.22,272.8,50.56H158.93L201,83.75Z"/><rect class="cls-3" x="226.14" y="83.39" width="74.67" height="2.17" transform="translate(526.94 168.95) rotate(-180)"/><path class="cls-4" d="M227.68,79.05l-4-4a6.64,6.64,0,0,0-3.28-1.79l-30.22-6.58a6.71,6.71,0,0,0-3.21.09l-1.61.46A6.63,6.63,0,0,0,182.15,78l6.49,7.42A6.57,6.57,0,0,0,193,87.63l29.34,2.72a6.63,6.63,0,0,0,5.3-1.9h0A6.64,6.64,0,0,0,227.68,79.05Z"/><path class="cls-4" d="M298.69,81.17,302,75a5.45,5.45,0,0,1,2-2.1h0a5.44,5.44,0,0,1,5.34-.15L311.86,74a5.47,5.47,0,0,1,2.63,3.08L316,81.65a5.46,5.46,0,0,1-4.24,7.13L304.88,90a5.45,5.45,0,0,1-5.73-2.79l-.46-.85A5.45,5.45,0,0,1,298.69,81.17Z"/><path class="cls-6" d="M135.67,51.89H30.39a5.72,5.72,0,0,1-5.47-7.37c2.39-8,7-20.51,13.9-26.89a5.84,5.84,0,0,1,2.74-1.4c12.4-2.63,32.36-4.38,47.16-5.4a46.51,46.51,0,0,1,36.4,13.84A127.43,127.43,0,0,1,140.31,43.2,5.59,5.59,0,0,1,135.67,51.89Z"/><path class="cls-3" d="M203.75,114.89c0,3.28,3.36,5.94,7.5,5.94s7.5-2.66,7.5-5.94-3.36-6-7.5-6S203.75,111.61,203.75,114.89Z"/><path class="cls-3" d="M264.17,78.85c-2.46,0-3.66,2.52-2.68,5.62s3.77,5.62,6.23,5.62,3.66-2.51,2.68-5.62S266.63,78.85,264.17,78.85Z"/><path class="cls-3" d="M314.64,114.89c0,3.28.94,5.94,2.11,5.94s2.11-2.66,2.11-5.94-.95-6-2.11-6S314.64,111.61,314.64,114.89Z"/><path class="cls-3" d="M138.91,50.94V47.57a6.5,6.5,0,0,0-7.83-6.37l-12.82,2.67a6.51,6.51,0,0,0-5.18,6.37v.7a6.5,6.5,0,0,0,6.51,6.5h12.82A6.5,6.5,0,0,0,138.91,50.94Z"/><path class="cls-3" d="M71.46,12.23l4.7-.44c-13.19,27-9.83,40.1-9.83,40.1h-10C56.17,35.44,71.46,12.23,71.46,12.23Z"/><path class="cls-7" d="M182.62,39.8a8.59,8.59,0,0,0,8.54,7.76H243c3.78,0,5.15-4.22,2.42-7.37a148,148,0,0,0-16.06-15.67c-9.76-8.22-21.88-12.49-33.21-11.7l-4.29.31a8.58,8.58,0,0,0-7.73,6.77A65.21,65.21,0,0,0,182.62,39.8Z"/><path class="cls-5" d="M65.14,130.39a.5.5,0,0,0,.5-.5c0-10.12-5.16-51.85-6.51-58.11-1.32-6.07-1.32-12.84,0-17.25a.51.51,0,0,0-.34-.62.49.49,0,0,0-.62.34c-1.35,4.56-1.36,11.52,0,17.74s6.49,47.82,6.49,57.9A.5.5,0,0,0,65.14,130.39Z"/><path class="cls-5" d="M66.46,72.28h12.2a1.51,1.51,0,0,0,1.52-1.85L79.93,69a2.31,2.31,0,0,0-2.18-1.84H65.56A1.5,1.5,0,0,0,64,69l.25,1.42A2.31,2.31,0,0,0,66.46,72.28Z"/></g></g></svg>