<svg xmlns="http://www.w3.org/2000/svg" viewBox="0 0 769.12 839.28"><defs><style>.cls-1{fill:#ccbdb0;}.cls-2{fill:#7c6a4c;}.cls-3{fill:#f9e6d5;}.cls-4{fill:#e8d7c8;}.cls-5{fill:#99855c;}.cls-6{fill:#231f20;}.cls-7,.cls-8{fill:#fff;}.cls-8{opacity:0.49;}</style></defs><g id="Capa_2" data-name="Capa 2"><g id="Layer_2" data-name="Layer 2"><path class="cls-1" d="M57.3,804.92c-1,5.86-2.2,12-5.72,16.76s-10.2,7.87-15.61,5.38A810.21,810.21,0,0,0,38,641.33c-2.6-24.89-6.32-50.38-.2-74.65,2.85-11.3,9.57-23.51,21.08-25.34,32.45-5.19,39.67,47.37,34.48,69.1-9.46,39.6-15.61,80-22.78,120.09Q64,767.73,57.3,804.92Z"/><path class="cls-1" d="M177,803.57c1.12,5.85,2.22,11.95.64,17.7s-6.71,11-12.66,10.59a809.66,809.66,0,0,0-64.39-174.22C89.32,635.32,76.75,612.84,73.79,588c-1.37-11.57.55-25.37,10.65-31.2,28.46-16.43,54,30.09,56.88,52.24,5.3,40.37,14,80.31,21.6,120.31Q170,766.46,177,803.57Z"/><path class="cls-1" d="M529.81,828.5l-26.64,3.38a484.29,484.29,0,0,0-10.66-143.14c-5-21.84-11.46-43.42-14.08-65.66-1.88-16-.81-34.32,11.37-44.78,10.92-9.38,31-7.61,40.43,3.49,8.65,10.22,3.19,26.7,2.16,38.74q-5.61,65.7-5.12,131.74Q527.53,790.4,529.81,828.5Z"/><path class="cls-1" d="M418.72,831.88l-21-.1A605.78,605.78,0,0,0,420.6,656.14c-.24-14-.9-28.4,3.95-41.52s16.91-24.75,30.89-24.24c5.18.2,10.55,2.27,13.47,6.56a20.45,20.45,0,0,1,2.8,7.49c6.86,33.45-13.41,74.11-22.35,105.54Q432.16,770.44,418.72,831.88Z"/><path class="cls-2" d="M500,.38c-5.14,2.88,57.21,28.75,74.23,134.9.38,2.41.37,5,1.69,7,2.85,4.45,9.31,4.38,14.51,3.45,28.79-5.16,5.77-45.48-2.47-61.34a189.9,189.9,0,0,0-49.4-60.33C526.72,14.63,506.25-2.78,500,.38Z"/><path class="cls-3" d="M637.68,152.28c31,34.83,69.11,69.85,113.82,68,4.19-.18,8.87-.53,12.07,2.4,4.44,4.06,3.31,11.69,1.42,17.64a103.27,103.27,0,0,1-12.68,27.11c-18.12,26.51-50.68,37.76-81.18,36.67s-59.73-12.69-88.34-24.16l-37.58-15.06c-12.83-5.14-26.5-11-34.15-23.23-8-12.84-7.46-29.88-3.81-44.86,6.7-27.44,26.71-61,51-74.41C589.33,105.13,617.1,129.14,637.68,152.28Z"/><path class="cls-3" d="M586,430c-2.57,19.17-5.72,39.62-18.75,53.91-21.33,23.39-59.6,20-88.44,7-15.95-7.22-31.41-17.38-40.05-32.61-7.5-13.23-9.13-29-8.89-44.2a204.06,204.06,0,0,1,6.27-47c4.42-17.35,11.11-34,17.77-50.66l48.93-122.09c8.66-21.61,18.71-44.84,39-56.17,58.29-32.48,99.77,44.37,82.22,92.76C600.67,295.32,595.08,361.81,586,430Z"/><path class="cls-4" d="M605.68,290.19c.42.3.84.62,1.26.94-3.12,13.85-5.73,27.78-8,41.8l-.8-1.14c-18.71-26.73-37.17-55.74-39.11-88.31C571.59,262,587.52,277.26,605.68,290.19Z"/><path class="cls-3" d="M541.25,705l-11.49-16q-6.71,14.64-13.39,29.28-4.53-7.82-9.08-15.63L488,717.84q-1.95-6.68-3.92-13.34-10.46,9.3-20.93,18.58-5.4-7.4-10.81-14.8-8,9.36-15.95,18.71c-1.26,1.49-2.88,3.1-4.69,2.71-1.41-.31-2.36-1.73-3.15-3L406.93,691.1a355,355,0,0,1-40.65,61.39c-1.51,1.82-3.26,3.76-5.5,3.89-2.95.17-5.16-2.79-6.82-5.47a376.47,376.47,0,0,1-41.32-94.21c-21.17,40.47-56.59,71.73-97.2,85.76L218,711.24A57.77,57.77,0,0,1,195.58,736q-.11-11.28-.2-22.55a202.8,202.8,0,0,1-92.88,41.48,96.84,96.84,0,0,0,8.23-37C97,733.42,77.85,743.11,58.15,744.61a179.39,179.39,0,0,0,5.44-33.29A71.93,71.93,0,0,1,29.67,735q3.81-28.38,7.63-56.75C28,690.81,14.61,699.56.14,702.49a210.33,210.33,0,0,0,23.38-73.33c3.5-27.74,1.56-56,4.89-83.78,9.5-79.15,64.26-148.29,133-174.79C246,338,341.85,365.77,427.64,337c32.12-10.77,62.71-25.71,94.83-6.18,19.49,11.85,42.18,32.33,53.8,53.61,10.67,19.51,10.57,41.72,8.63,63.72-3.46,39.29-10.46,78.56-16.93,117.37Q556.25,635.66,541.25,705Z"/><path class="cls-4" d="M433.54,657.93l21.63,35.57c.8,1.31,1.74,2.73,3.15,3,1.81.39,3.43-1.23,4.69-2.71L479,675.12l10.82,14.8q10.46-9.3,20.93-18.58l3.91,13.33,19.27-15.12L543,685.18l5.15-11.27q-3.2,15.58-6.56,31.13l-11.49-16L516.7,718.35l-9.09-15.63-19.26,15.12q-2-6.68-3.92-13.34L463.5,723.08q-5.42-7.4-10.81-14.8L436.74,727c-1.27,1.49-2.88,3.1-4.7,2.71-1.41-.31-2.35-1.73-3.15-3l-18.52-30.45A360.55,360.55,0,0,0,433.54,657.93Z"/><path class="cls-4" d="M30,735q3.82-28.38,7.63-56.75C28.37,690.81,14.94,699.56.46,702.49a210.13,210.13,0,0,0,23.39-73.33c3.49-27.74,1.56-56,4.89-83.78,5.75-47.93,28.1-92.19,60.11-125.54A218.08,218.08,0,0,0,55,512.21c-3.33,27.76-1.39,56-4.89,83.78a209.78,209.78,0,0,1-23.38,73.33c14.47-2.92,27.91-11.68,37.16-24.22q-3.81,28.38-7.63,56.75a71.74,71.74,0,0,0,33.92-23.7,178.56,178.56,0,0,1-5.44,33.29c19.7-1.49,38.8-11.18,52.59-26.67a97,97,0,0,1-8.24,37A202.78,202.78,0,0,0,222,680.25q.11,11.26.2,22.54a57.77,57.77,0,0,0,22.39-24.71Q243.31,693.7,242,709.3c23.76-8.21,45.74-22.33,64.13-40.73-21.53,34.69-53.86,61.27-90.4,73.89l2.52-31.22A57.85,57.85,0,0,1,195.9,736q-.09-11.28-.19-22.55a202.85,202.85,0,0,1-92.88,41.48,97,97,0,0,0,8.23-37c-13.79,15.49-32.88,25.18-52.59,26.68a178.56,178.56,0,0,0,5.44-33.29A71.88,71.88,0,0,1,30,735Z"/><path class="cls-4" d="M339.24,623.53a376.14,376.14,0,0,0,41.33,94.21c1.65,2.69,3.86,5.65,6.81,5.47a4,4,0,0,0,1-.21,347.64,347.64,0,0,1-21.82,29.49c-1.5,1.82-3.26,3.76-5.49,3.89-2.95.17-5.17-2.79-6.82-5.47A375.94,375.94,0,0,1,314,660.23,185.39,185.39,0,0,0,339.24,623.53Z"/><path class="cls-3" d="M52.46,416.17a130.46,130.46,0,0,1-51,10.16,67.61,67.61,0,0,0,22.93,7.8L4.5,446.73a20.9,20.9,0,0,1,12.73,4.8Q9.19,464.6,0,476.9c1.36-1.82,27.34-2.5,31.27-3.48a160.85,160.85,0,0,0,32.8-12.61c17.27-8.63,45.21-21.77,56.82-37.71,10.45-14.36,3.92-24.48-12.7-26.7C88,393.71,70,408.79,52.46,416.17Z"/><path class="cls-5" d="M432.88,31C429,35.43,496.48,38.26,549,132.08c1.19,2.13,2.07,4.55,4,6,4.21,3.19,10.25.91,14.81-1.76,25.26-14.75-10.23-44.68-23.42-56.74A189.77,189.77,0,0,0,477.25,40C462.91,35.12,437.7,25.82,432.88,31Z"/><path class="cls-4" d="M536,191.11a178.08,178.08,0,0,1-42.54,28.48q6.15-16.89,12.29-33.76c1.1-3.05,2.29-6.22,4.65-8.44s5.23-3.09,8.15-4c5-1.58,27.83-11.5,31.29-6.77C554.69,173.18,540,187.51,536,191.11Z"/><path class="cls-3" d="M485.15,135.81c-22.39,7.21-42.16,20.62-61.6,33.86,8.63.67,14.58,8.73,22.28,12.69,6.92,3.56,15.05,3.66,22.84,3.51,20.8-.4,41.8-2.06,61.63-8.35C547.77,172,568,157.4,549.89,140.3,534.23,125.49,503.41,129.93,485.15,135.81Z"/><path class="cls-4" d="M535.24,149.51c-13.29-6.32-28.89-6.32-43.2-2.92s-27.66,10-40.85,16.5c5.12,2.69,11,3.52,16.76,4,7.76.63,15.55.68,23.34.73l40.92.27c3.49,0,7.93-.64,8.79-4,.53-2.09-.65-4.55.53-6.35,1-1.56,3.22-1.71,4.84-2.63,4.15-2.34-.22-3.11-1.27-3.4C541.81,150.76,538.75,151.18,535.24,149.51Z"/><path class="cls-4" d="M607.86,168.08c2.62,3.24,3.74,7.4,5.55,11.16a33,33,0,0,0,7,9.65c2.39,2.27,5.33,4.58,5.54,7.86.18,2.78-1.83,5.35-4.32,6.61a18.3,18.3,0,0,1-8.14,1.49c-7.4.08-15.1-1-21.28-5s-10.42-11.74-8.7-18.93C585.74,171.59,598.88,157,607.86,168.08Z"/><path class="cls-6" d="M589.63,192.46a12.61,12.61,0,1,0,12.61-12.6A12.62,12.62,0,0,0,589.63,192.46Z"/><path class="cls-7" d="M602,190.26a4.35,4.35,0,1,0,4.35-4.35A4.34,4.34,0,0,0,602,190.26Z"/><path class="cls-6" d="M760.89,220.61a20.46,20.46,0,0,0-7.36-.82c-2.46.34-4.93,1.8-5.72,4.15-.72,2.11,0,4.43,1.08,6.4s2.4,3.8,3,5.93c.84,2.91.23,6-.39,9s-1.27,6.06-.48,9,3.52,5.56,6.52,5.16c2.6-.34,4.42-2.72,5.7-5C768.05,245.79,774.65,223.9,760.89,220.61Z"/><path class="cls-6" d="M731.07,288.2c-1,.67-14.11-3-24.28-7s-24.66-11.1-24.66-11.1l-1.54,1.54a237.36,237.36,0,0,0,22.81,10.79c9.89,3.9,22.9,8.72,22.9,8.72Z"/><path class="cls-6" d="M528.69,807.07S544.38,833.2,544.85,837s-45.56,1.39-45.09-1.89,4.4-20.71,4.4-20.71Z"/><path class="cls-6" d="M424.55,803S441.54,833.2,442,837s-45.78,2.58-45.31-.7,7-27.12,7-27.12Z"/><path class="cls-6" d="M176.49,795.63s17,30.17,17.46,33.92-45.79,2.58-45.32-.7,7-27.12,7-27.12Z"/><path class="cls-6" d="M58.89,797.73s17,30.17,17.45,33.92S30.55,834.23,31,831s7-27.12,7-27.12Z"/><path class="cls-4" d="M515,638a143.83,143.83,0,0,0-1.4-24.36l-15.27,19.11-.69-7.29q-13.15,14.74-26.32,29.47c3-24,4.86-48.26,5.57-72.49-13,20.23-26.72,41.11-47.07,54Q450.23,571,470.7,505.54a191.85,191.85,0,0,1-2.6,56.69q10.88-16.4,21.74-32.81A332.69,332.69,0,0,1,487,590.09c7.46-4.86,12.42-12.64,17.15-20.17l23-36.6a179.88,179.88,0,0,1-9.78,67.93c11.79-8.24,19.17-19.36,25.82-31.78,3.22,9-6.25,25.46-10,34S515.19,629.35,515,638Z"/><path class="cls-4" d="M138.86,630a143.83,143.83,0,0,0-1.4-24.36L122.2,624.75l-.69-7.29L95.18,646.94q4.5-36.09,5.57-72.5c-13,20.23-26.72,41.11-47.07,54Q74.14,563,94.61,497.54A191.85,191.85,0,0,1,92,554.23l21.74-32.81a331.8,331.8,0,0,1-2.86,60.67c7.46-4.85,12.42-12.63,17.15-20.17l23-36.6a180.07,180.07,0,0,1-9.77,67.93c11.78-8.24,19.17-19.36,25.81-31.78,3.22,9-6.25,25.46-10,34S139.1,621.35,138.86,630Z"/><path class="cls-4" d="M247.63,662.59a142.8,142.8,0,0,0-1.4-24.36L231,657.34l-.69-7.29Q217.11,664.78,204,679.52q4.48-36.09,5.57-72.5c-13.05,20.24-26.73,41.12-47.08,54q20.46-65.43,40.93-130.86a191.55,191.55,0,0,1-2.6,56.69q10.88-16.41,21.74-32.82a330.87,330.87,0,0,1-2.86,60.67c7.46-4.85,12.43-12.63,17.16-20.17l23-36.59A180,180,0,0,1,250,625.83c11.78-8.24,19.17-19.36,25.81-31.78,3.22,9-6.25,25.46-10,34.05S247.87,653.94,247.63,662.59Z"/><path class="cls-8" d="M341.94,379.83c1.55,5.63-1.95,11.69-6.86,14.85s-10.92,4-16.74,4.55c-25.46,2.35-51.18,0-76.64,2.38A206.88,206.88,0,0,0,173.77,420c-4.7,2.19-9.53,4.61-14.72,4.62s-10.81-3.31-11.42-8.46c-.69-5.85,4.91-10.34,10-13.27,29.47-16.95,63.13-24.32,96.68-27.46C267.6,374.19,337.51,363.77,341.94,379.83Z"/><path class="cls-8" d="M668.87,190.21c3.59,2,7.41,4,9.73,7.36a3.75,3.75,0,0,1,.84,2.65,3.33,3.33,0,0,1-1.68,2.11c-4.11,2.52-9.37.11-13.55-2.31-23.05-13.37-46.12-27.61-63.87-47.49-4.67-5.23-11.74-14.33-6.77-21.49,4.6-6.61,11.65-3.53,15.52,1.75,10.71,14.62,20.6,28.44,34.68,40.2A160.57,160.57,0,0,0,668.87,190.21Z"/></g></g></svg>